<svg width="33" height="34" viewBox="0 0 33 34" fill="none" xmlns="http://www.w3.org/2000/svg">
<g clip-path="url(#clip0_1_25)">
<path d="M8.66667 4.66669H23.3333C23.5403 4.66669 23.7445 4.71488 23.9296 4.80745C24.1148 4.90002 24.2758 5.03443 24.4 5.20002L28 10V30C28 30.3536 27.8595 30.6928 27.6095 30.9428C27.3594 31.1929 27.0203 31.3334 26.6667 31.3334H5.33333C4.97971 31.3334 4.64057 31.1929 4.39052 30.9428C4.14048 30.6928 4 30.3536 4 30V10L7.6 5.20002C7.7242 5.03443 7.88524 4.90002 8.07038 4.80745C8.25552 4.71488 8.45967 4.66669 8.66667 4.66669ZM24.6667 10L22.6667 7.33335H9.33333L7.33333 10H24.6667ZM12 15.3334H9.33333V18C9.33333 19.7681 10.0357 21.4638 11.286 22.7141C12.5362 23.9643 14.2319 24.6667 16 24.6667C17.7681 24.6667 19.4638 23.9643 20.714 22.7141C21.9643 21.4638 22.6667 19.7681 22.6667 18V15.3334H20V18C20 19.0609 19.5786 20.0783 18.8284 20.8284C18.0783 21.5786 17.0609 22 16 22C14.9391 22 13.9217 21.5786 13.1716 20.8284C12.4214 20.0783 12 19.0609 12 18V15.3334Z" fill="white"/>
</g>
<circle cx="25" cy="8" r="7" fill="#F08C00" stroke="white" stroke-width="2"/>
<defs>
<clipPath id="clip0_1_25">
<rect width="32" height="32" fill="white" transform="translate(0 2)"/>
</clipPath>
</defs>
</svg>
